<svg width="217" height="167" viewBox="0 0 217 167" fill="none" xmlns="http://www.w3.org/2000/svg">
<path d="M57 59.5H57.0039V48.5029C57.0039 21.9113 78.4137 0.276981 105.004 0H166.996C194.612 0 216.998 22.3883 216.996 50.0039V61.9971C216.996 88.5887 195.586 110.223 168.996 110.5H217V167H50C22.3858 167 2.35155e-06 144.614 0 117V0H57V59.5ZM114.5 55C111.462 55 109 57.4624 109 60.5C109 63.5376 111.462 66 114.5 66H159.5C162.538 66 165 63.5376 165 60.5C165 57.4624 162.538 55 159.5 55H114.5Z" fill="white"/>
</svg>
