<svg width="90" height="229" viewBox="0 0 90 229" fill="none" xmlns="http://www.w3.org/2000/svg">
<path d="M28.9385 2.78259C40.7429 -1.31318 50.7292 -0.949885 62.085 4.28748C73.5719 11.5059 78.3087 19.7088 82.7627 32.4232L84.0166 36.389H89.998C89.1265 40.9815 88.2471 45.5734 87.3584 50.1625L86.2598 55.8256C84.6012 64.5725 83.2393 73.3013 80.084 81.641C77.5811 87.6358 77.581 87.6378 74.2393 100.392L72.9268 105.482C70.1773 115.911 67.8412 126.031 66.0732 136.705L62.0869 144.735C56.9088 155.156 56.9085 155.158 62.0869 184.861C65.9641 190.496 65.9645 190.497 68.3643 195.222L70.8096 200.16C77.6288 214.455 77.6294 214.456 84.0186 229H0.279297C2.20361 224.159 4.10256 219.288 6.48633 214.659C11.123 205.996 15.1737 197.152 18.5918 187.927L19.9678 184.109C24.9817 170.483 23.9832 159.058 22.2109 144.735L20.2148 136.705C20.2148 124.668 20.2146 124.666 17.4111 118.938C14.1683 112.499 12.9853 107.396 11.8838 100.362C10.5547 91.2099 9.4435 82.0445 6.47656 73.2709C3.16145 65.2343 0.069673 62.7628 0 57.5941C0.5 56 2.17979 57.2732 1.99805 56.0004C1.59971 53.212 4.37663 34.5563 5.77441 27.0853C5.79797 27.0034 5.82289 26.923 5.8457 26.8431C10.8112 14.4844 17.1859 8.91485 28.9385 2.78259Z" fill="white"/>
</svg>
