<svg width="35" height="13" viewBox="0 0 35 13" fill="none" xmlns="http://www.w3.org/2000/svg">
<path fill-rule="evenodd" clip-rule="evenodd" d="M6.25 0C7.56197 0 8.6571 0.919237 8.93164 2.14844C10.1323 2.54044 11 3.66848 11 5V5.75H12.5C12.5 4.23122 13.7312 3 15.25 3H18.75C20.2688 3 21.5 4.23122 21.5 5.75H23V5C23 3.47923 24.1315 2.22251 25.5986 2.02637C25.9165 0.858965 26.9819 0 28.25 0H31.75C33.2688 0 34.5 1.23122 34.5 2.75C34.5 4.26878 33.2688 5.5 31.75 5.5H28.25C26.8363 5.5 25.6729 4.43306 25.5186 3.06055C24.6468 3.27623 24 4.0616 24 5V7.5C24 8.43832 24.6469 9.22271 25.5186 9.43848C25.6733 8.06643 26.8366 7 28.25 7H31.75C33.2688 7 34.5 8.23122 34.5 9.75C34.5 11.2688 33.2688 12.5 31.75 12.5H28.25C26.9816 12.5 25.9162 11.6405 25.5986 10.4727C24.1316 10.2765 23 9.02073 23 7.5V6.75H21.3096C20.9093 7.77381 19.9156 8.5 18.75 8.5H15.25C14.0844 8.5 13.0907 7.77381 12.6904 6.75H11V7.5C11 8.83141 10.1321 9.9585 8.93164 10.3506C8.65745 11.5803 7.5623 12.5 6.25 12.5H2.75C1.23122 12.5 0 11.2688 0 9.75C0 8.23122 1.23122 7 2.75 7H6.25C7.60059 7 8.72093 7.97415 8.95312 9.25781C9.57647 8.9191 10 8.25932 10 7.5V5C10 4.24052 9.5767 3.57985 8.95312 3.24121C8.72131 4.52535 7.60093 5.5 6.25 5.5H2.75C1.23122 5.5 0 4.26878 0 2.75C0 1.23122 1.23122 0 2.75 0H6.25ZM2.75 8C1.7835 8 1 8.7835 1 9.75C1 10.7165 1.7835 11.5 2.75 11.5H6.25C7.2165 11.5 8 10.7165 8 9.75C8 8.7835 7.2165 8 6.25 8H2.75ZM28.25 8C27.2835 8 26.5 8.7835 26.5 9.75C26.5 10.7165 27.2835 11.5 28.25 11.5H31.75C32.7165 11.5 33.5 10.7165 33.5 9.75C33.5 8.7835 32.7165 8 31.75 8H28.25ZM15.25 4C14.2835 4 13.5 4.7835 13.5 5.75C13.5 6.7165 14.2835 7.5 15.25 7.5H18.75C19.7165 7.5 20.5 6.7165 20.5 5.75C20.5 4.7835 19.7165 4 18.75 4H15.25ZM2.75 1C1.7835 1 1 1.7835 1 2.75C1 3.7165 1.7835 4.5 2.75 4.5H6.25C7.2165 4.5 8 3.7165 8 2.75C8 1.7835 7.2165 1 6.25 1H2.75ZM28.25 1C27.2835 1 26.5 1.7835 26.5 2.75C26.5 3.7165 27.2835 4.5 28.25 4.5H31.75C32.7165 4.5 33.5 3.7165 33.5 2.75C33.5 1.7835 32.7165 1 31.75 1H28.25Z" fill="white"/>
</svg>
