<svg width="23" height="19" viewBox="0 0 23 19" fill="none" xmlns="http://www.w3.org/2000/svg">
<path fill-rule="evenodd" clip-rule="evenodd" d="M7 15C8.10457 15 9 15.8954 9 17C9 18.1046 8.10457 19 7 19H2C0.895431 19 0 18.1046 0 17C0 15.8954 0.895431 15 2 15H7ZM2 16C1.44772 16 1 16.4477 1 17C1 17.5523 1.44772 18 2 18H7C7.55228 18 8 17.5523 8 17C8 16.4477 7.55228 16 7 16H2Z" fill="white"/>
<path d="M9 1.5C10.3807 1.5 11.5 2.61929 11.5 4V4.0498C12.6411 4.28142 13.5 5.29051 13.5 6.5V9H14V10H13.5V12.5C13.5 13.7095 12.6411 14.7186 11.5 14.9502V15C11.5 16.3807 10.3807 17.5 9 17.5V16.5C9.82843 16.5 10.5 15.8284 10.5 15V14C10.5 13.1716 9.82843 12.5 9 12.5V11.5C10.3522 11.5 11.4503 12.5737 11.4951 13.915C12.08 13.7104 12.5 13.1548 12.5 12.5V6.5C12.5 5.84522 12.08 5.28961 11.4951 5.08496C11.4503 6.42628 10.3522 7.5 9 7.5V6.5C9.82843 6.5 10.5 5.82843 10.5 5V4C10.5 3.17157 9.82843 2.5 9 2.5V1.5Z" fill="white"/>
<path fill-rule="evenodd" clip-rule="evenodd" d="M7 10C8.10457 10 9 10.8954 9 12C9 13.1046 8.10457 14 7 14H2C0.895431 14 0 13.1046 0 12C0 10.8954 0.895431 10 2 10H7ZM2 11C1.44772 11 1 11.4477 1 12C1 12.5523 1.44772 13 2 13H7C7.55228 13 8 12.5523 8 12C8 11.4477 7.55228 11 7 11H2Z" fill="white"/>
<path fill-rule="evenodd" clip-rule="evenodd" d="M19.5 6C21.433 6 23 7.567 23 9.5C23 11.433 21.433 13 19.5 13H17.5C15.567 13 14 11.433 14 9.5C14 7.567 15.567 6 17.5 6H19.5ZM17.5 7C16.1193 7 15 8.11929 15 9.5C15 10.8807 16.1193 12 17.5 12H19.5C20.8807 12 22 10.8807 22 9.5C22 8.11929 20.8807 7 19.5 7H17.5Z" fill="white"/>
<path fill-rule="evenodd" clip-rule="evenodd" d="M7 5C8.10457 5 9 5.89543 9 7C9 8.10457 8.10457 9 7 9H2C0.895431 9 0 8.10457 0 7C0 5.89543 0.895431 5 2 5H7ZM2 6C1.44772 6 1 6.44772 1 7C1 7.55228 1.44772 8 2 8H7C7.55228 8 8 7.55228 8 7C8 6.44772 7.55228 6 7 6H2Z" fill="white"/>
<path fill-rule="evenodd" clip-rule="evenodd" d="M7 0C8.10457 0 9 0.895431 9 2C9 3.10457 8.10457 4 7 4H2C0.895431 4 0 3.10457 0 2C0 0.895431 0.895431 0 2 0H7ZM2 1C1.44772 1 1 1.44772 1 2C1 2.55228 1.44772 3 2 3H7C7.55228 3 8 2.55228 8 2C8 1.44772 7.55228 1 7 1H2Z" fill="white"/>
</svg>
