<svg width="180" height="171" viewBox="0 0 180 171" fill="none" xmlns="http://www.w3.org/2000/svg">
<path fill-rule="evenodd" clip-rule="evenodd" d="M180 36.9528C180 41.9233 175.971 45.9528 171 45.9528H147.14C142.169 45.9528 138.14 49.9822 138.14 54.9528V74.272C138.14 79.2426 142.169 83.272 147.14 83.272H171C175.971 83.272 180 87.3014 180 92.272V120.225C180 125.195 175.971 129.225 171 129.225H147.14C142.169 129.225 138.14 133.254 138.14 138.225V162C138.14 166.971 134.11 171 129.14 171H101.093C96.1225 171 92.093 166.971 92.093 162V138.225C92.093 133.254 88.0636 129.225 83.093 129.225H55.0465C50.0759 129.225 46.0465 133.254 46.0465 138.225V162C46.0465 166.971 42.0171 171 37.0465 171H9C4.02944 171 0 166.971 0 162V134.047C0 129.077 4.02944 125.047 9 125.047H37.0465C42.0171 125.047 46.0465 121.018 46.0465 116.047V96.4495C46.0465 91.4789 42.0171 87.4495 37.0465 87.4495H9C4.02944 87.4495 0 83.4201 0 78.4495V50.4967C0 45.5262 4.02944 41.4967 9 41.4967H124.953C129.924 41.4967 133.953 37.4673 133.953 32.4967V9.00001C133.953 4.02944 137.983 0 142.953 0H180V36.9528ZM92.093 116.047C92.093 121.018 96.1225 125.047 101.093 125.047H124.953C129.924 125.047 133.953 121.018 133.953 116.047V96.4495C133.953 91.4789 129.924 87.4495 124.953 87.4495H101.093C96.1225 87.4495 92.093 91.4789 92.093 96.4495V116.047Z" fill="white"/>
</svg>
